<svg width="26" height="26" viewBox="0 0 26 26" fill="none" xmlns="http://www.w3.org/2000/svg">
<g clip-path="url(#clip0_321_1513)">
<path d="M14.084 1.08506C14.084 0.797745 14.1981 0.522195 14.4013 0.319031C14.6044 0.115867 14.88 0.00173005 15.1673 0.00173005C18.0395 0.00488428 20.7932 1.14726 22.8241 3.17822C24.8551 5.20918 25.9974 7.96285 26.0006 10.8351C26.0006 11.1224 25.8865 11.3979 25.6833 11.6011C25.4801 11.8043 25.2046 11.9184 24.9173 11.9184C24.63 11.9184 24.3544 11.8043 24.1512 11.6011C23.9481 11.3979 23.8339 11.1224 23.8339 10.8351C23.8314 8.53731 22.9174 6.33441 21.2927 4.70965C19.6679 3.0849 17.465 2.17098 15.1673 2.1684C14.88 2.1684 14.6044 2.05426 14.4013 1.8511C14.1981 1.64793 14.084 1.37238 14.084 1.08506ZM15.1673 6.50173C16.3166 6.50173 17.4188 6.95828 18.2314 7.77093C19.0441 8.58359 19.5006 9.68579 19.5006 10.8351C19.5006 11.1224 19.6147 11.3979 19.8179 11.6011C20.0211 11.8043 20.2966 11.9184 20.5839 11.9184C20.8713 11.9184 21.1468 11.8043 21.35 11.6011C21.5531 11.3979 21.6673 11.1224 21.6673 10.8351C21.6656 9.11168 20.9802 7.45938 19.7616 6.24077C18.543 5.02216 16.8907 4.33678 15.1673 4.33506C14.88 4.33506 14.6044 4.4492 14.4013 4.65236C14.1981 4.85553 14.084 5.13108 14.084 5.4184C14.084 5.70571 14.1981 5.98126 14.4013 6.18443C14.6044 6.38759 14.88 6.50173 15.1673 6.50173ZM25.018 18.1356C25.6458 18.7652 25.9984 19.618 25.9984 20.5071C25.9984 21.3961 25.6458 22.2489 25.018 22.8785L24.0322 24.0149C15.1597 32.5093 -6.43111 10.9239 1.93222 2.02323L3.17805 0.939897C3.8083 0.32963 4.65347 -0.00796678 5.53073 0.000142794C6.40798 0.00825237 7.24677 0.361417 7.86563 0.98323C7.89921 1.01681 9.90662 3.6244 9.90662 3.6244C10.5023 4.25016 10.8339 5.0814 10.8324 5.94533C10.831 6.80926 10.4967 7.63942 9.89904 8.26323L8.64454 9.84056C9.33879 11.5274 10.3595 13.0605 11.6481 14.3517C12.9367 15.6428 14.4677 16.6667 16.1531 17.3643L17.7402 16.1022C18.3641 15.505 19.1941 15.1711 20.0578 15.1699C20.9214 15.1687 21.7524 15.5003 22.3779 16.0957C22.3779 16.0957 24.9844 18.1021 25.018 18.1356ZM23.5274 19.7108C23.5274 19.7108 20.9349 17.7164 20.9014 17.6828C20.6782 17.4615 20.3766 17.3374 20.0623 17.3374C19.748 17.3374 19.4465 17.4615 19.2233 17.6828C19.194 17.7131 17.0089 19.4541 17.0089 19.4541C16.8617 19.5713 16.6865 19.6481 16.5005 19.677C16.3145 19.7058 16.1242 19.6858 15.9484 19.6187C13.7649 18.8058 11.7816 17.533 10.1329 15.8867C8.48414 14.2404 7.20848 12.259 6.39229 10.0767C6.31993 9.89847 6.29633 9.70416 6.32394 9.51376C6.35155 9.32337 6.42936 9.14376 6.54938 8.9934C6.54938 8.9934 8.29029 6.80723 8.31954 6.77906C8.54083 6.55588 8.66499 6.25431 8.66499 5.94002C8.66499 5.62573 8.54083 5.32416 8.31954 5.10098C8.28596 5.06848 6.29154 2.4739 6.29154 2.4739C6.06502 2.27078 5.76938 2.162 5.46523 2.16986C5.16108 2.17771 4.87145 2.30161 4.65571 2.51615L3.40988 3.59948C-2.70228 10.9488 16.0079 28.6212 22.4484 22.5351L23.4353 21.3976C23.6665 21.1833 23.8055 20.8876 23.8226 20.5728C23.8398 20.2581 23.7339 19.9489 23.5274 19.7108Z" fill="#FF7200"/>
</g>
<defs>
<clipPath id="clip0_321_1513">
<rect width="26" height="26" fill="white"/>
</clipPath>
</defs>
</svg>
